<svg xmlns="http://www.w3.org/2000/svg" xmlns:xlink="http://www.w3.org/1999/xlink" width="286.9pt" height="66.5pt" viewBox="0 0 286.9 66.5" version="1.1" transform="matrix(1, 0, 0, 1, 0, 0)">
<defs fill="#000000">
<clipPath id="clip1" fill="#000000">
  <path d="M 240 22 L 286.898438 22 L 286.898438 66 L 240 66 Z M 240 22 " fill="#000000"/>
</clipPath>
<clipPath id="clip2" fill="#000000">
  <path d="M 45 21 L 106 21 L 106 66.5 L 45 66.5 Z M 45 21 " fill="#000000"/>
</clipPath>
</defs>
<g id="surface1">
<path style=" stroke:none;fill-rule:evenodd;fill:#ffffff;fill-opacity:1;" d="M 41.15625 65.972656 L 11.195313 65.972656 C 8.132813 65.972656 5.355469 64.710938 3.339844 62.679688 C 1.339844 60.65625 0.09375 57.878906 0.09375 54.832031 L 0.09375 22.125 L 6.09375 22.125 L 6.09375 54.832031 C 6.09375 56.28125 6.675781 57.59375 7.605469 58.535156 C 8.53125 59.464844 9.800781 60.042969 11.195313 60.042969 L 41.15625 60.042969 Z M 41.15625 65.972656 "/>
<g clip-path="url(#clip1)" clip-rule="nonzero">
<path style=" stroke:none;fill-rule:evenodd;fill:#ffffff;fill-opacity:1;" d="M 286.90625 65.972656 L 251.976563 65.972656 C 248.953125 65.972656 246.191406 64.800781 244.183594 62.917969 C 242.144531 61.003906 240.878906 58.359375 240.878906 55.445313 L 240.878906 32.652344 C 240.878906 29.738281 242.144531 27.09375 244.183594 25.179688 C 246.191406 23.296875 248.953125 22.125 251.976563 22.125 L 286.90625 22.125 L 286.90625 27.984375 L 251.976563 27.984375 C 250.546875 27.984375 249.257813 28.527344 248.332031 29.394531 C 247.433594 30.234375 246.878906 31.390625 246.878906 32.652344 L 246.878906 41.050781 L 284.046875 41.050781 L 284.046875 47.050781 L 246.878906 47.050781 L 246.878906 55.445313 C 246.878906 56.710938 247.433594 57.863281 248.332031 58.703125 C 249.257813 59.574219 250.546875 60.113281 251.976563 60.113281 L 286.90625 60.113281 Z M 286.90625 65.972656 "/>
</g>
<path style=" stroke:none;fill-rule:evenodd;fill:#ffffff;fill-opacity:1;" d="M 110.644531 65.984375 L 110.644531 22.117188 L 116.648438 22.117188 L 116.648438 41.503906 L 152.261719 22.113281 L 164.765625 22.113281 L 131.273438 40.347656 L 166.335938 65.984375 L 155.929688 65.984375 L 125.472656 43.507813 L 116.648438 48.3125 L 116.648438 65.984375 Z M 110.644531 65.984375 "/>
<g clip-path="url(#clip2)" clip-rule="nonzero">
<path style=" stroke:none;fill-rule:evenodd;fill:#ffffff;fill-opacity:1;" d="M 45.898438 66.453125 L 69.089844 25.917969 C 69.953125 24.40625 71.085938 23.292969 72.359375 22.574219 C 73.488281 21.933594 74.703125 21.628906 75.925781 21.644531 C 77.15625 21.664063 78.359375 21.992188 79.464844 22.625 C 80.800781 23.386719 82.015625 24.609375 82.953125 26.273438 L 105.667969 66.453125 L 98.808594 66.453125 L 89.347656 49.71875 L 62.378906 49.71875 L 52.804688 66.453125 Z M 86.089844 43.953125 L 77.75 29.203125 C 77.378906 28.546875 76.941406 28.085938 76.488281 27.828125 C 76.253906 27.691406 76.039063 27.625 75.855469 27.621094 C 75.667969 27.617188 75.476563 27.667969 75.289063 27.777344 C 74.953125 27.964844 74.613281 28.332031 74.292969 28.894531 L 65.675781 43.953125 Z M 86.089844 43.953125 "/>
</g>
<path style=" stroke:none;fill-rule:evenodd;fill:#ffffff;fill-opacity:1;" d="M 168.609375 65.972656 L 168.609375 28.515625 C 168.609375 26.628906 169.277344 25.097656 170.359375 23.984375 C 171.253906 23.0625 172.402344 22.46875 173.675781 22.238281 C 174.839844 22.023438 176.097656 22.113281 177.328125 22.539063 C 179.214844 23.191406 181.0625 24.636719 182.34375 26.960938 L 199.027344 57.242188 C 199.804688 58.542969 200.367188 59.039063 200.761719 58.992188 C 201.441406 58.917969 202.332031 58.152344 203.300781 57.027344 L 219.863281 26.960938 C 221.140625 24.636719 222.992188 23.191406 224.878906 22.539063 C 226.109375 22.113281 227.367188 22.023438 228.53125 22.238281 C 229.804688 22.46875 230.953125 23.0625 231.847656 23.984375 C 232.925781 25.097656 233.597656 26.628906 233.597656 28.515625 L 233.597656 65.972656 L 227.597656 65.972656 L 227.597656 28.515625 C 227.597656 28.238281 227.5625 28.078125 227.511719 28.023438 C 227.503906 28.011719 227.472656 28.003906 227.429688 27.996094 C 227.285156 27.96875 227.09375 27.992188 226.871094 28.070313 C 226.273438 28.277344 225.644531 28.816406 225.136719 29.738281 L 208.4375 60.046875 L 208.121094 60.507813 C 206.152344 62.871094 203.914063 64.542969 201.441406 64.824219 C 198.652344 65.136719 196.027344 63.84375 193.816406 60.128906 L 193.769531 60.046875 L 177.070313 29.738281 C 176.5625 28.816406 175.929688 28.277344 175.335938 28.070313 C 175.113281 27.992188 174.921875 27.96875 174.777344 27.996094 C 174.734375 28.003906 174.703125 28.015625 174.695313 28.023438 C 174.644531 28.078125 174.609375 28.238281 174.609375 28.515625 L 174.609375 65.972656 Z M 168.609375 65.972656 "/>
<path style=" stroke:none;fill-rule:evenodd;fill:#ffffff;fill-opacity:1;" d="M 247.628906 13.503906 L 281.207031 -0.0546875 L 282.691406 3.648438 L 249.113281 17.207031 Z M 247.628906 13.503906 "/>
</g>
</svg>